<svg xmlns="http://www.w3.org/2000/svg" width="48" height="55" xmlns:v="https://vecta.io/nano"><style><![CDATA[.B{fill:#52b0e7}.C{fill:#3c76c3}.D{fill:#2e3b69}]]></style><g fill-rule="evenodd"><path d="m24 7.992 17.137 9.684L48 13.738 24.063.016.003 13.738l6.864 3.938z" class="B"/><path d="m.125 13.813 6.926 3.972v19.649L24 47.152v7.797L0 41.262z" class="C"/><path d="m17.36 23.688 6.671 3.824v7.797l-3.46-1.985-3.208-1.844z" fill="#2e9d4d"/><path d="m30.828 23.617-6.797 3.895v7.797l6.672-3.829z" fill="#256f44"/><path d="m47.875 13.813-6.926 3.972v19.43l-8.285 4.969L24 47.152v7.797l.063.035L47.898 41.32z" class="D"/><path d="m24.031 27.512-6.672-3.825v-.046l6.672-3.828.082-.047 3.38 1.937 3.335 1.914z" fill="#9fd62b"/><path d="m8.875 28.367 6.672 3.828v7.793l-3.461-1.984-3.211-1.844z" class="C"/><path d="m22.219 28.367-6.672 3.828v7.793l6.672-3.828z" class="D"/><path d="m15.547 32.195-6.672-3.828 3.379-1.98 3.293-1.89 6.672 3.87z" class="B"/><path d="m26.047 28.57 6.672 3.825v7.792l-3.461-1.984-3.211-1.84z" class="C"/><path d="m39.39 28.57-6.671 3.825v7.792l6.672-3.824z" class="D"/><path d="m32.719 32.395-6.672-3.825v-.047l3.375-1.937 3.297-1.89 6.672 3.874z" class="B"/><path d="M17.629 33.484 24.3 37.31v7.796l-3.461-1.988-3.211-1.84z" class="C"/><path d="M30.973 33.484 24.3 37.31v7.796l6.672-3.828z" class="D"/><path d="m24.3 37.309-6.671-3.825v-.047l3.379-1.937 3.293-1.89 6.672 3.874z" class="B"/><path d="m17.36 13.266 6.671 3.824v7.797l-3.46-1.989-3.208-1.84z" class="C"/><path d="m30.828 13.195-6.797 3.895v7.797l6.672-3.828z" class="D"/><path d="m24.031 17.09-6.672-3.824v-.047l6.672-3.824.082-.047 3.38 1.933 3.335 1.914z" class="B"/><path d="m8.875 17.95 6.672 3.823v7.793l-3.461-1.984-3.211-1.84z" class="C"/><path d="m22.219 17.95-6.672 3.823v7.793l6.672-3.824z" class="D"/><path d="M15.547 21.773 8.875 17.95l3.379-1.984 3.293-1.89 6.672 3.874z" class="B"/><path d="m26.047 18.148 6.672 3.825v7.797l-3.461-1.989-3.211-1.84z" class="C"/><path d="m39.39 18.148-6.671 3.825v7.797l6.672-3.829z" class="D"/><path d="m32.719 21.973-6.672-3.825v-.046l3.375-1.938 3.297-1.89 6.672 3.874z" class="B"/><path d="m17.629 23.063 6.672 3.824v7.797l-3.461-1.985-3.211-1.844z" class="C"/><path d="M30.973 23.063 24.3 26.886v7.797l6.672-3.829z" class="D"/><path d="m24.3 26.887-6.671-3.825v-.046l3.379-1.938 3.293-1.89 6.672 3.875z" class="B"/></g></svg>